<svg id="visual" viewBox="0 0 900 100" width="900" height="100" xmlns="http://www.w3.org/2000/svg" xmlns:xlink="http://www.w3.org/1999/xlink" version="1.1"><rect x="0" y="0" width="900" height="100" fill="#000000"></rect><path d="M0 57L8.8 58.2C17.7 59.3 35.3 61.7 53 60.2C70.7 58.7 88.3 53.3 106 52.8C123.7 52.3 141.3 56.7 159 57C176.7 57.3 194.3 53.7 212 53.3C229.7 53 247.3 56 265 58.8C282.7 61.7 300.3 64.3 318 63.2C335.7 62 353.3 57 371 54.5C388.7 52 406.3 52 423.8 52C441.3 52 458.7 52 476.2 51C493.7 50 511.3 48 529 50.5C546.7 53 564.3 60 582 63.2C599.7 66.3 617.3 65.7 635 64.7C652.7 63.7 670.3 62.3 688 61.2C705.7 60 723.3 59 741 56.7C758.7 54.3 776.3 50.7 794 49.2C811.7 47.7 829.3 48.3 847 48.8C864.7 49.3 882.3 49.7 891.2 49.8L900 50L900 101L891.2 101C882.3 101 864.7 101 847 101C829.3 101 811.7 101 794 101C776.3 101 758.7 101 741 101C723.3 101 705.7 101 688 101C670.3 101 652.7 101 635 101C617.3 101 599.7 101 582 101C564.3 101 546.7 101 529 101C511.3 101 493.7 101 476.2 101C458.7 101 441.3 101 423.8 101C406.3 101 388.7 101 371 101C353.3 101 335.7 101 318 101C300.3 101 282.7 101 265 101C247.3 101 229.7 101 212 101C194.3 101 176.7 101 159 101C141.3 101 123.7 101 106 101C88.3 101 70.7 101 53 101C35.3 101 17.7 101 8.8 101L0 101Z" fill="#171717"></path><path d="M0 69L8.8 68.7C17.7 68.3 35.3 67.7 53 65.8C70.7 64 88.3 61 106 61C123.7 61 141.3 64 159 64.5C176.7 65 194.3 63 212 62.8C229.7 62.7 247.3 64.3 265 65C282.7 65.7 300.3 65.3 318 65.5C335.7 65.7 353.3 66.3 371 66.5C388.7 66.7 406.3 66.3 423.8 65.8C441.3 65.3 458.7 64.7 476.2 63.2C493.7 61.7 511.3 59.3 529 58.8C546.7 58.3 564.3 59.7 582 61C599.7 62.3 617.3 63.7 635 64.2C652.7 64.7 670.3 64.3 688 63C705.7 61.7 723.3 59.3 741 59.3C758.7 59.3 776.3 61.7 794 63.5C811.7 65.3 829.3 66.7 847 67C864.7 67.3 882.3 66.7 891.2 66.3L900 66L900 101L891.2 101C882.3 101 864.7 101 847 101C829.3 101 811.7 101 794 101C776.3 101 758.7 101 741 101C723.3 101 705.7 101 688 101C670.3 101 652.7 101 635 101C617.3 101 599.7 101 582 101C564.3 101 546.7 101 529 101C511.3 101 493.7 101 476.2 101C458.7 101 441.3 101 423.8 101C406.3 101 388.7 101 371 101C353.3 101 335.7 101 318 101C300.3 101 282.7 101 265 101C247.3 101 229.7 101 212 101C194.3 101 176.7 101 159 101C141.3 101 123.7 101 106 101C88.3 101 70.7 101 53 101C35.3 101 17.7 101 8.8 101L0 101Z" fill="#3e3e3e"></path><path d="M0 70L8.8 70C17.7 70 35.3 70 53 69.5C70.7 69 88.3 68 106 69C123.7 70 141.3 73 159 72C176.7 71 194.3 66 212 63.8C229.7 61.7 247.3 62.3 265 63.8C282.7 65.3 300.3 67.7 318 68.2C335.7 68.7 353.3 67.3 371 67.2C388.7 67 406.3 68 423.8 68.7C441.3 69.3 458.7 69.7 476.2 69C493.7 68.3 511.3 66.7 529 66.3C546.7 66 564.3 67 582 66.5C599.7 66 617.3 64 635 63.2C652.7 62.3 670.3 62.7 688 62.5C705.7 62.3 723.3 61.7 741 63.7C758.7 65.7 776.3 70.3 794 71.3C811.7 72.3 829.3 69.7 847 67.3C864.7 65 882.3 63 891.2 62L900 61L900 101L891.2 101C882.3 101 864.7 101 847 101C829.3 101 811.7 101 794 101C776.3 101 758.7 101 741 101C723.3 101 705.7 101 688 101C670.3 101 652.7 101 635 101C617.3 101 599.7 101 582 101C564.3 101 546.7 101 529 101C511.3 101 493.7 101 476.2 101C458.7 101 441.3 101 423.8 101C406.3 101 388.7 101 371 101C353.3 101 335.7 101 318 101C300.3 101 282.7 101 265 101C247.3 101 229.7 101 212 101C194.3 101 176.7 101 159 101C141.3 101 123.7 101 106 101C88.3 101 70.7 101 53 101C35.3 101 17.7 101 8.8 101L0 101Z" fill="#6a6a6a"></path><path d="M0 73L8.8 74C17.7 75 35.3 77 53 78.3C70.7 79.7 88.3 80.3 106 80.7C123.7 81 141.3 81 159 81C176.7 81 194.3 81 212 79.7C229.7 78.3 247.3 75.7 265 74.8C282.7 74 300.3 75 318 75.7C335.7 76.3 353.3 76.7 371 77.2C388.7 77.7 406.3 78.3 423.8 77C441.3 75.7 458.7 72.3 476.2 71.5C493.7 70.7 511.3 72.3 529 73C546.7 73.7 564.3 73.3 582 74C599.7 74.7 617.3 76.3 635 76C652.7 75.7 670.3 73.3 688 73.8C705.7 74.3 723.3 77.7 741 79C758.7 80.3 776.3 79.7 794 79.7C811.7 79.7 829.3 80.3 847 79.8C864.7 79.3 882.3 77.7 891.2 76.8L900 76L900 101L891.2 101C882.3 101 864.7 101 847 101C829.3 101 811.7 101 794 101C776.3 101 758.7 101 741 101C723.3 101 705.7 101 688 101C670.3 101 652.7 101 635 101C617.3 101 599.7 101 582 101C564.3 101 546.7 101 529 101C511.3 101 493.7 101 476.2 101C458.7 101 441.3 101 423.8 101C406.3 101 388.7 101 371 101C353.3 101 335.7 101 318 101C300.3 101 282.7 101 265 101C247.3 101 229.7 101 212 101C194.3 101 176.7 101 159 101C141.3 101 123.7 101 106 101C88.3 101 70.7 101 53 101C35.3 101 17.7 101 8.8 101L0 101Z" fill="#999999"></path><path d="M0 80L8.8 79.7C17.7 79.3 35.3 78.7 53 79.3C70.7 80 88.3 82 106 82.5C123.7 83 141.3 82 159 82C176.7 82 194.3 83 212 83.3C229.7 83.7 247.3 83.3 265 83.5C282.7 83.7 300.3 84.3 318 84.3C335.7 84.3 353.3 83.7 371 83C388.7 82.3 406.3 81.7 423.8 82C441.3 82.3 458.7 83.7 476.2 83.3C493.7 83 511.3 81 529 80.5C546.7 80 564.3 81 582 81.5C599.7 82 617.3 82 635 81.2C652.7 80.3 670.3 78.7 688 78.2C705.7 77.7 723.3 78.3 741 78.3C758.7 78.3 776.3 77.7 794 77.7C811.7 77.7 829.3 78.3 847 78.2C864.7 78 882.3 77 891.2 76.5L900 76L900 101L891.2 101C882.3 101 864.7 101 847 101C829.3 101 811.7 101 794 101C776.3 101 758.7 101 741 101C723.3 101 705.7 101 688 101C670.3 101 652.7 101 635 101C617.3 101 599.7 101 582 101C564.3 101 546.7 101 529 101C511.3 101 493.7 101 476.2 101C458.7 101 441.3 101 423.8 101C406.3 101 388.7 101 371 101C353.3 101 335.7 101 318 101C300.3 101 282.7 101 265 101C247.3 101 229.7 101 212 101C194.3 101 176.7 101 159 101C141.3 101 123.7 101 106 101C88.3 101 70.7 101 53 101C35.3 101 17.7 101 8.8 101L0 101Z" fill="#cbcbcb"></path><path d="M0 88L8.8 88.2C17.7 88.3 35.3 88.7 53 88.3C70.7 88 88.3 87 106 86.5C123.7 86 141.3 86 159 86.5C176.7 87 194.3 88 212 88.5C229.7 89 247.3 89 265 89C282.7 89 300.3 89 318 88.3C335.7 87.7 353.3 86.3 371 85.7C388.7 85 406.3 85 423.8 85C441.3 85 458.7 85 476.2 85.5C493.7 86 511.3 87 529 87.3C546.7 87.7 564.3 87.3 582 87.3C599.7 87.3 617.3 87.7 635 87.7C652.7 87.7 670.3 87.3 688 86.8C705.7 86.3 723.3 85.7 741 85.3C758.7 85 776.3 85 794 85.5C811.7 86 829.3 87 847 87.7C864.7 88.3 882.3 88.7 891.2 88.8L900 89L900 101L891.2 101C882.3 101 864.7 101 847 101C829.3 101 811.7 101 794 101C776.3 101 758.7 101 741 101C723.3 101 705.7 101 688 101C670.3 101 652.7 101 635 101C617.3 101 599.7 101 582 101C564.3 101 546.7 101 529 101C511.3 101 493.7 101 476.2 101C458.7 101 441.3 101 423.8 101C406.3 101 388.7 101 371 101C353.3 101 335.7 101 318 101C300.3 101 282.7 101 265 101C247.3 101 229.7 101 212 101C194.3 101 176.7 101 159 101C141.3 101 123.7 101 106 101C88.3 101 70.7 101 53 101C35.3 101 17.7 101 8.8 101L0 101Z" fill="#ffffff"></path></svg>